<?xml version="1.0" encoding="UTF-8"?>
<!DOCTYPE svg PUBLIC "-//W3C//DTD SVG 1.1//EN" "http://www.w3.org/Graphics/SVG/1.1/DTD/svg11.dtd">
<svg xmlns="http://www.w3.org/2000/svg" version="1.1" width="512px" height="512px" style="shape-rendering:geometricPrecision; text-rendering:geometricPrecision; image-rendering:optimizeQuality; fill-rule:evenodd; clip-rule:evenodd" xmlns:xlink="http://www.w3.org/1999/xlink">
<g><path style="opacity:0.995" fill="#444444" d="M 465.5,178.5 C 465.167,178.5 464.833,178.5 464.5,178.5C 464.5,157.5 464.5,136.5 464.5,115.5C 394.733,141.882 325.067,168.549 255.5,195.5C 185.75,168.695 116.083,141.695 46.5,114.5C 115.993,90.0005 185.66,65.6672 255.5,41.5C 325.129,65.7653 394.796,89.932 464.5,114C 465.494,135.425 465.827,156.925 465.5,178.5 Z"/></g>
<g><path style="opacity:1" fill="#232323" d="M 46.5,114.5 C 116.083,141.695 185.75,168.695 255.5,195.5C 256.156,217.859 255.489,239.859 253.5,261.5C 184.833,234.167 116.167,206.833 47.5,179.5C 47.1583,178.662 46.4916,178.328 45.5,178.5C 45.1694,156.993 45.5027,135.66 46.5,114.5 Z"/></g>
<g><path style="opacity:1" fill="#525251" d="M 464.5,178.5 C 394.833,206.5 325.167,234.5 255.5,262.5C 254.508,262.672 253.842,262.338 253.5,261.5C 255.489,239.859 256.156,217.859 255.5,195.5C 325.067,168.549 394.733,141.882 464.5,115.5C 464.5,136.5 464.5,157.5 464.5,178.5 Z"/></g>
<g><path style="opacity:0.129" fill="#916b27" d="M 45.5,178.5 C 46.4916,178.328 47.1583,178.662 47.5,179.5C 46.1787,192.735 46.1787,206.069 47.5,219.5C 46.8333,219.5 46.1667,219.5 45.5,219.5C 45.5,205.833 45.5,192.167 45.5,178.5 Z"/></g>
<g><path style="opacity:1" fill="#fdb832" d="M 47.5,179.5 C 116.167,206.833 184.833,234.167 253.5,261.5C 253.842,262.338 254.508,262.672 255.5,262.5C 255.829,275.677 255.495,288.677 254.5,301.5C 185.398,274.45 116.398,247.117 47.5,219.5C 46.1787,206.069 46.1787,192.735 47.5,179.5 Z"/></g>
<g><path style="opacity:1" fill="#fdca67" d="M 464.5,178.5 C 464.833,178.5 465.167,178.5 465.5,178.5C 465.5,192.167 465.5,205.833 465.5,219.5C 395.371,246.767 325.371,274.433 255.5,302.5C 254.833,302.5 254.5,302.167 254.5,301.5C 255.495,288.677 255.829,275.677 255.5,262.5C 325.167,234.5 394.833,206.5 464.5,178.5 Z"/></g>
<g><path style="opacity:0.997" fill="#232322" d="M 45.5,219.5 C 46.1667,219.5 46.8333,219.5 47.5,219.5C 116.398,247.117 185.398,274.45 254.5,301.5C 254.5,302.167 254.833,302.5 255.5,302.5C 255.5,358.167 255.5,413.833 255.5,469.5C 185.619,439.31 115.786,408.977 46,378.5C 45.5,325.501 45.3333,272.501 45.5,219.5 Z"/></g>
<g><path style="opacity:0.998" fill="#525251" d="M 465.5,219.5 C 465.5,270.5 465.5,321.5 465.5,372.5C 453.763,377.302 442.097,382.302 430.5,387.5C 430.5,350.833 430.5,314.167 430.5,277.5C 409.071,285.478 387.904,294.144 367,303.5C 366.5,341.832 366.333,380.165 366.5,418.5C 329.376,435.229 292.376,452.229 255.5,469.5C 255.5,413.833 255.5,358.167 255.5,302.5C 325.371,274.433 395.371,246.767 465.5,219.5 Z"/></g>
<g><path style="opacity:0.997" fill="#fecb67" d="M 430.5,387.5 C 428.49,390.027 425.823,391.861 422.5,393C 403.688,401.24 385.021,409.74 366.5,418.5C 366.333,380.165 366.5,341.832 367,303.5C 387.904,294.144 409.071,285.478 430.5,277.5C 430.5,314.167 430.5,350.833 430.5,387.5 Z"/></g>
</svg>
